<svg width="448" height="320" viewBox="0 0 448 320" fill="none" xmlns="http://www.w3.org/2000/svg">
<g clip-path="url(#clip0_8_59)">
<path d="M144 88.9553H160C164.8 88.9553 168 85.7463 168 80.9329C168 80.9329 168 67.7348 168 61.3099C168 54.0898 131.653 45.2243 131.653 45.2243H9.82658C8.76722 48.3228 8.22658 55.1878 8.22658 58.4633L8 80.9329C8 85.7463 11.2 88.9553 16 88.9553H32C32 80.094 39.1634 72.9105 48 72.9105C56.8366 72.9105 64 80.094 64 88.9553H112C112 80.094 119.163 72.9105 128 72.9105C136.837 72.9105 144 80.094 144 88.9553Z" fill="currentColor"/>
<path d="M144 88.9553H160C164.8 88.9553 168 85.7463 168 80.9329C168 80.9329 168 67.7348 168 61.3099C168 54.0898 131.653 45.2243 131.653 45.2243M144 88.9553C144 97.8165 136.837 105 128 105C119.163 105 112 97.8165 112 88.9553M144 88.9553C144 80.094 136.837 72.9105 128 72.9105C119.163 72.9105 112 80.094 112 88.9553M131.653 45.2243C131.653 45.2243 121.027 20.8358 113.827 13.6157C109.827 10.4067 105.027 8 99.4266 8H32C27.2 8 23.2 11.2089 20.8 15.2201L9.82658 45.2243M131.653 45.2243H9.82658M9.82658 45.2243C8.76722 48.3228 8.22658 55.1878 8.22658 58.4633L8 80.9329C8 85.7463 11.2 88.9553 16 88.9553H32M32 88.9553C32 97.8165 39.1634 105 48 105C56.8366 105 64 97.8165 64 88.9553M32 88.9553C32 80.094 39.1634 72.9105 48 72.9105C56.8366 72.9105 64 80.094 64 88.9553M64 88.9553H112" stroke="currentColor" stroke-width="16" stroke-linecap="round" stroke-linejoin="round"/>
<path d="M209 204C238.333 204 262 227.567 262 256.5C262 285.433 238.333 309 209 309C179.667 309 156 285.433 156 256.5C156 227.567 179.667 204 209 204Z" stroke="currentColor" stroke-width="16"/>
<circle cx="387" cy="257" r="53" stroke="currentColor" stroke-width="16"/>
<path d="M288.532 255.097H209L257.761 177.065M288.532 255.097L360.533 177.065H257.761M288.532 255.097L257.761 177.065M257.761 177.065L248.766 148.992M230.303 148.992H268.649M387 257L347.707 139H323.564" stroke="currentColor" stroke-width="16" stroke-linecap="round" stroke-linejoin="round"/>
</g>
<defs>
<clipPath id="clip0_8_59">
<rect width="448" height="320" fill="white" style="fill:white;fill-opacity:1;"/>
</clipPath>
</defs>
</svg>
