<svg width="448" height="320" viewBox="0 0 448 320" fill="none" xmlns="http://www.w3.org/2000/svg">
<circle cx="117.716" cy="234.5" r="56" stroke="currentColor" stroke-width="16"/>
<circle cx="305.716" cy="234.5" r="56" stroke="currentColor" stroke-width="16"/>
<path d="M201.716 233H117.716L169.216 151M201.716 233L277.761 151H169.216M201.716 233L169.216 151M169.216 151L159.716 121.5M140.216 121.5H180.716M305.716 235L264.216 111H238.716" stroke="currentColor" stroke-width="16" stroke-linecap="round" stroke-linejoin="round"/>
<path d="M343.96 17.5C362.575 17.5003 375.298 29.0797 381.285 43.124C386.401 55.1262 386.992 69.6699 382.187 82.0615C393.622 96.1108 397.073 114.628 392.015 130.475C386.883 146.553 373.282 159.037 352.578 161.589V191H336.578V161.583C315.981 159.018 302.264 146.541 296.871 130.575C291.53 114.764 294.599 96.1873 305.964 82.0986C301.191 69.7387 301.786 55.1993 306.853 43.1992C312.78 29.1664 325.408 17.5 343.96 17.5ZM343.96 33.5C333.238 33.5 325.61 39.9113 321.593 49.4238C317.458 59.2136 317.758 71.1348 322.439 79.6865C324.145 82.8035 323.591 86.673 321.078 89.1855C310.932 99.3285 308.086 113.78 312.03 125.455C315.804 136.628 326.089 146.068 344.578 146.068C363.245 146.068 373.246 136.655 376.772 125.609C380.48 113.992 377.395 99.4558 367.07 89.167C364.546 86.6522 363.99 82.7711 365.705 79.6484C370.429 71.0467 370.721 59.1461 366.566 49.3984C362.533 39.9358 354.844 33.5003 343.96 33.5Z" fill="currentColor"/>
<path d="M343.96 17.5C362.575 17.5003 375.298 29.0797 381.285 43.124C386.401 55.1262 386.992 69.6699 382.187 82.0615C393.622 96.1108 397.073 114.628 392.015 130.475C386.883 146.553 373.282 159.037 352.578 161.589V191H336.578V161.583C315.981 159.018 302.264 146.541 296.871 130.575C291.53 114.764 294.599 96.1873 305.964 82.0986C301.191 69.7387 301.786 55.1993 306.853 43.1992C312.78 29.1664 325.408 17.5 343.96 17.5ZM343.96 33.5C333.238 33.5 325.61 39.9113 321.593 49.4238C317.458 59.2136 317.758 71.1348 322.439 79.6865C324.145 82.8035 323.591 86.673 321.078 89.1855C310.932 99.3285 308.086 113.78 312.03 125.455C315.804 136.628 326.089 146.068 344.578 146.068C363.245 146.068 373.246 136.655 376.772 125.609C380.48 113.992 377.395 99.4558 367.07 89.167C364.546 86.6522 363.99 82.7711 365.705 79.6484C370.429 71.0467 370.721 59.1461 366.566 49.3984C362.533 39.9358 354.844 33.5003 343.96 33.5Z" fill="currentColor"/>
<path d="M343.96 17.5C362.575 17.5003 375.298 29.0797 381.285 43.124C386.401 55.1262 386.992 69.6699 382.187 82.0615C393.622 96.1108 397.073 114.628 392.015 130.475C386.883 146.553 373.282 159.037 352.578 161.589V191H336.578V161.583C315.981 159.018 302.264 146.541 296.871 130.575C291.53 114.764 294.599 96.1873 305.964 82.0986C301.191 69.7387 301.786 55.1993 306.853 43.1992C312.78 29.1664 325.408 17.5 343.96 17.5ZM343.96 33.5C333.238 33.5 325.61 39.9113 321.593 49.4238C317.458 59.2136 317.758 71.1348 322.439 79.6865C324.145 82.8035 323.591 86.673 321.078 89.1855C310.932 99.3285 308.086 113.78 312.03 125.455C315.804 136.628 326.089 146.068 344.578 146.068C363.245 146.068 373.246 136.655 376.772 125.609C380.48 113.992 377.395 99.4558 367.07 89.167C364.546 86.6522 363.99 82.7711 365.705 79.6484C370.429 71.0467 370.721 59.1461 366.566 49.3984C362.533 39.9358 354.844 33.5003 343.96 33.5Z" fill="currentColor"/>
<path d="M32 312L416 312" stroke="currentColor" stroke-width="16" stroke-linecap="round" stroke-linejoin="round"/>
</svg>
