<svg width="448" height="320" viewBox="0 0 448 320" fill="none" xmlns="http://www.w3.org/2000/svg">
<path d="M194.25 113.474H212.75C218.3 113.474 222 109.769 222 104.211C222 104.211 222 88.9722 222 81.5537C222 73.2171 179.974 62.9807 179.974 62.9807H39.112C37.8871 66.5582 37.262 74.4848 37.262 78.2669L37 104.211C37 109.769 40.7 113.474 46.25 113.474H64.75C64.75 103.243 73.0327 94.9483 83.25 94.9483C93.4673 94.9483 101.75 103.243 101.75 113.474H157.25C157.25 103.243 165.533 94.9483 175.75 94.9483C185.967 94.9483 194.25 103.243 194.25 113.474Z" fill="currentColor"/>
<path d="M194.25 113.474H212.75C218.3 113.474 222 109.769 222 104.211C222 104.211 222 88.9722 222 81.5537C222 73.2171 179.974 62.9807 179.974 62.9807M194.25 113.474C194.25 123.706 185.967 132 175.75 132C165.533 132 157.25 123.706 157.25 113.474M194.25 113.474C194.25 103.243 185.967 94.9483 175.75 94.9483C165.533 94.9483 157.25 103.243 157.25 113.474M179.974 62.9807C179.974 62.9807 167.687 34.8207 159.362 26.4841C154.737 22.7789 149.187 20 142.712 20H64.75C59.2 20 54.575 23.7052 51.8 28.3366L39.112 62.9807M179.974 62.9807H39.112M39.112 62.9807C37.8871 66.5582 37.262 74.4848 37.262 78.2669L37 104.211C37 109.769 40.7 113.474 46.25 113.474H64.75M64.75 113.474C64.75 123.706 73.0327 132 83.25 132C93.4673 132 101.75 123.706 101.75 113.474M64.75 113.474C64.75 103.243 73.0327 94.9483 83.25 94.9483C93.4673 94.9483 101.75 103.243 101.75 113.474M101.75 113.474H157.25" stroke="currentColor" stroke-width="16" stroke-linecap="round" stroke-linejoin="round"/>
<path d="M257.75 265.474H239.25C233.7 265.474 230 261.769 230 256.211C230 256.211 230 240.972 230 233.554C230 225.217 272.026 214.981 272.026 214.981H412.888C414.113 218.558 414.738 226.485 414.738 230.267L415 256.211C415 261.769 411.3 265.474 405.75 265.474H387.25C387.25 255.243 378.967 246.948 368.75 246.948C358.533 246.948 350.25 255.243 350.25 265.474H294.75C294.75 255.243 286.467 246.948 276.25 246.948C266.033 246.948 257.75 255.243 257.75 265.474Z" fill="currentColor"/>
<path d="M257.75 265.474H239.25C233.7 265.474 230 261.769 230 256.211C230 256.211 230 240.972 230 233.554C230 225.217 272.026 214.981 272.026 214.981M257.75 265.474C257.75 275.706 266.033 284 276.25 284C286.467 284 294.75 275.706 294.75 265.474M257.75 265.474C257.75 255.243 266.033 246.948 276.25 246.948C286.467 246.948 294.75 255.243 294.75 265.474M272.026 214.981C272.026 214.981 284.313 186.821 292.638 178.484C297.263 174.779 302.813 172 309.288 172H387.25C392.8 172 397.425 175.705 400.2 180.337L412.888 214.981M272.026 214.981H412.888M412.888 214.981C414.113 218.558 414.738 226.485 414.738 230.267L415 256.211C415 261.769 411.3 265.474 405.75 265.474H387.25M387.25 265.474C387.25 275.706 378.967 284 368.75 284C358.533 284 350.25 275.706 350.25 265.474M387.25 265.474C387.25 255.243 378.967 246.948 368.75 246.948C358.533 246.948 350.25 255.243 350.25 265.474M350.25 265.474H294.75" stroke="currentColor" stroke-width="16" stroke-linecap="round" stroke-linejoin="round"/>
<path d="M54 312L134 312" stroke="currentColor" stroke-width="16" stroke-linecap="round" stroke-linejoin="round"/>
<path d="M182 312L262 312" stroke="currentColor" stroke-width="16" stroke-linecap="round" stroke-linejoin="round"/>
<path d="M310 312L390 312" stroke="currentColor" stroke-width="16" stroke-linecap="round" stroke-linejoin="round"/>
</svg>
